<mxfile host="app.diagrams.net" agent="Mozilla/5.0 (X11; Ubuntu; Linux x86_64; rv:131.0) Gecko/20100101 Firefox/131.0" version="24.7.17">
  <diagram name="Page-1" id="azyQCi3Utr8OxYnqYm6R">
    <mxGraphModel dx="1056" dy="634" grid="1" gridSize="10" guides="1" tooltips="1" connect="1" arrows="1" fold="1" page="1" pageScale="1" pageWidth="850" pageHeight="1100" math="0" shadow="0">
      <root>
        <mxCell id="0" />
        <mxCell id="1" parent="0" />
        <mxCell id="650QwpIArmR6P_icmCOE-14" style="edgeStyle=orthogonalEdgeStyle;rounded=0;orthogonalLoop=1;jettySize=auto;html=1;exitX=0.5;exitY=1;exitDx=0;exitDy=0;" edge="1" parent="1" source="650QwpIArmR6P_icmCOE-1" target="650QwpIArmR6P_icmCOE-2">
          <mxGeometry relative="1" as="geometry" />
        </mxCell>
        <mxCell id="650QwpIArmR6P_icmCOE-1" value="&lt;div&gt;Start&lt;/div&gt;" style="rounded=1;whiteSpace=wrap;html=1;" vertex="1" parent="1">
          <mxGeometry x="70" y="40" width="120" height="60" as="geometry" />
        </mxCell>
        <mxCell id="650QwpIArmR6P_icmCOE-15" style="edgeStyle=orthogonalEdgeStyle;rounded=0;orthogonalLoop=1;jettySize=auto;html=1;exitX=0.5;exitY=1;exitDx=0;exitDy=0;entryX=0.5;entryY=0;entryDx=0;entryDy=0;" edge="1" parent="1" source="650QwpIArmR6P_icmCOE-2" target="650QwpIArmR6P_icmCOE-3">
          <mxGeometry relative="1" as="geometry" />
        </mxCell>
        <mxCell id="650QwpIArmR6P_icmCOE-2" value="load11" style="rounded=1;whiteSpace=wrap;html=1;" vertex="1" parent="1">
          <mxGeometry x="70" y="110" width="120" height="60" as="geometry" />
        </mxCell>
        <mxCell id="650QwpIArmR6P_icmCOE-16" style="edgeStyle=orthogonalEdgeStyle;rounded=0;orthogonalLoop=1;jettySize=auto;html=1;exitX=0.5;exitY=1;exitDx=0;exitDy=0;entryX=0.5;entryY=0;entryDx=0;entryDy=0;" edge="1" parent="1" source="650QwpIArmR6P_icmCOE-3" target="650QwpIArmR6P_icmCOE-4">
          <mxGeometry relative="1" as="geometry" />
        </mxCell>
        <mxCell id="650QwpIArmR6P_icmCOE-3" value="&lt;div&gt;load12&lt;/div&gt;" style="rounded=1;whiteSpace=wrap;html=1;" vertex="1" parent="1">
          <mxGeometry x="70" y="180" width="120" height="60" as="geometry" />
        </mxCell>
        <mxCell id="650QwpIArmR6P_icmCOE-17" style="edgeStyle=orthogonalEdgeStyle;rounded=0;orthogonalLoop=1;jettySize=auto;html=1;exitX=0.5;exitY=1;exitDx=0;exitDy=0;entryX=0.5;entryY=0;entryDx=0;entryDy=0;" edge="1" parent="1" source="650QwpIArmR6P_icmCOE-4" target="650QwpIArmR6P_icmCOE-5">
          <mxGeometry relative="1" as="geometry" />
        </mxCell>
        <mxCell id="650QwpIArmR6P_icmCOE-4" value="&lt;div&gt;load21&lt;/div&gt;" style="rounded=1;whiteSpace=wrap;html=1;" vertex="1" parent="1">
          <mxGeometry x="70" y="250" width="120" height="60" as="geometry" />
        </mxCell>
        <mxCell id="650QwpIArmR6P_icmCOE-18" style="edgeStyle=orthogonalEdgeStyle;rounded=0;orthogonalLoop=1;jettySize=auto;html=1;exitX=0.5;exitY=1;exitDx=0;exitDy=0;entryX=0.5;entryY=0;entryDx=0;entryDy=0;" edge="1" parent="1" source="650QwpIArmR6P_icmCOE-5" target="650QwpIArmR6P_icmCOE-6">
          <mxGeometry relative="1" as="geometry" />
        </mxCell>
        <mxCell id="650QwpIArmR6P_icmCOE-5" value="load22" style="rounded=1;whiteSpace=wrap;html=1;" vertex="1" parent="1">
          <mxGeometry x="70" y="320" width="120" height="60" as="geometry" />
        </mxCell>
        <mxCell id="650QwpIArmR6P_icmCOE-10" style="edgeStyle=orthogonalEdgeStyle;rounded=0;orthogonalLoop=1;jettySize=auto;html=1;entryX=0;entryY=0.5;entryDx=0;entryDy=0;" edge="1" parent="1" source="650QwpIArmR6P_icmCOE-6" target="650QwpIArmR6P_icmCOE-7">
          <mxGeometry relative="1" as="geometry" />
        </mxCell>
        <mxCell id="650QwpIArmR6P_icmCOE-6" value="&lt;div&gt;muls&lt;/div&gt;" style="rounded=1;whiteSpace=wrap;html=1;" vertex="1" parent="1">
          <mxGeometry x="70" y="390" width="120" height="60" as="geometry" />
        </mxCell>
        <mxCell id="650QwpIArmR6P_icmCOE-12" style="edgeStyle=orthogonalEdgeStyle;rounded=0;orthogonalLoop=1;jettySize=auto;html=1;exitX=0.5;exitY=1;exitDx=0;exitDy=0;entryX=0.5;entryY=0;entryDx=0;entryDy=0;" edge="1" parent="1" source="650QwpIArmR6P_icmCOE-7" target="650QwpIArmR6P_icmCOE-8">
          <mxGeometry relative="1" as="geometry" />
        </mxCell>
        <mxCell id="650QwpIArmR6P_icmCOE-7" value="&lt;div&gt;sub_adds&lt;/div&gt;" style="rounded=1;whiteSpace=wrap;html=1;" vertex="1" parent="1">
          <mxGeometry x="260" y="110" width="120" height="60" as="geometry" />
        </mxCell>
        <mxCell id="650QwpIArmR6P_icmCOE-13" style="edgeStyle=orthogonalEdgeStyle;rounded=0;orthogonalLoop=1;jettySize=auto;html=1;exitX=0.5;exitY=1;exitDx=0;exitDy=0;entryX=0.5;entryY=0;entryDx=0;entryDy=0;" edge="1" parent="1" source="650QwpIArmR6P_icmCOE-8" target="650QwpIArmR6P_icmCOE-9">
          <mxGeometry relative="1" as="geometry" />
        </mxCell>
        <mxCell id="650QwpIArmR6P_icmCOE-8" value="&lt;div&gt;subs&lt;/div&gt;" style="rounded=1;whiteSpace=wrap;html=1;" vertex="1" parent="1">
          <mxGeometry x="260" y="180" width="120" height="60" as="geometry" />
        </mxCell>
        <mxCell id="650QwpIArmR6P_icmCOE-22" style="edgeStyle=orthogonalEdgeStyle;rounded=0;orthogonalLoop=1;jettySize=auto;html=1;entryX=1;entryY=0.25;entryDx=0;entryDy=0;" edge="1" parent="1" source="650QwpIArmR6P_icmCOE-9" target="650QwpIArmR6P_icmCOE-20">
          <mxGeometry relative="1" as="geometry">
            <mxPoint x="440" y="50" as="targetPoint" />
            <Array as="points">
              <mxPoint x="441" y="280" />
              <mxPoint x="441" y="55" />
            </Array>
          </mxGeometry>
        </mxCell>
        <mxCell id="650QwpIArmR6P_icmCOE-27" style="edgeStyle=orthogonalEdgeStyle;rounded=0;orthogonalLoop=1;jettySize=auto;html=1;entryX=0;entryY=0.5;entryDx=0;entryDy=0;" edge="1" parent="1" target="650QwpIArmR6P_icmCOE-23">
          <mxGeometry relative="1" as="geometry">
            <mxPoint x="480" y="60" as="targetPoint" />
            <mxPoint x="320" y="300" as="sourcePoint" />
            <Array as="points">
              <mxPoint x="320" y="370" />
              <mxPoint x="480" y="370" />
              <mxPoint x="480" y="80" />
            </Array>
          </mxGeometry>
        </mxCell>
        <mxCell id="650QwpIArmR6P_icmCOE-9" value="absolutes" style="rounded=1;whiteSpace=wrap;html=1;" vertex="1" parent="1">
          <mxGeometry x="260" y="250" width="120" height="60" as="geometry" />
        </mxCell>
        <mxCell id="650QwpIArmR6P_icmCOE-21" style="edgeStyle=orthogonalEdgeStyle;rounded=0;orthogonalLoop=1;jettySize=auto;html=1;exitX=0.5;exitY=1;exitDx=0;exitDy=0;entryX=0.5;entryY=0;entryDx=0;entryDy=0;" edge="1" parent="1" source="650QwpIArmR6P_icmCOE-20" target="650QwpIArmR6P_icmCOE-7">
          <mxGeometry relative="1" as="geometry" />
        </mxCell>
        <mxCell id="650QwpIArmR6P_icmCOE-20" value="muls2" style="rounded=1;whiteSpace=wrap;html=1;" vertex="1" parent="1">
          <mxGeometry x="260" y="40" width="120" height="60" as="geometry" />
        </mxCell>
        <mxCell id="650QwpIArmR6P_icmCOE-28" style="edgeStyle=orthogonalEdgeStyle;rounded=0;orthogonalLoop=1;jettySize=auto;html=1;exitX=0.5;exitY=1;exitDx=0;exitDy=0;" edge="1" parent="1" source="650QwpIArmR6P_icmCOE-23" target="650QwpIArmR6P_icmCOE-24">
          <mxGeometry relative="1" as="geometry" />
        </mxCell>
        <mxCell id="650QwpIArmR6P_icmCOE-23" value="&lt;div&gt;last_add&lt;/div&gt;" style="rounded=1;whiteSpace=wrap;html=1;" vertex="1" parent="1">
          <mxGeometry x="510" y="50" width="120" height="60" as="geometry" />
        </mxCell>
        <mxCell id="650QwpIArmR6P_icmCOE-29" style="edgeStyle=orthogonalEdgeStyle;rounded=0;orthogonalLoop=1;jettySize=auto;html=1;exitX=0.5;exitY=1;exitDx=0;exitDy=0;entryX=0.5;entryY=0;entryDx=0;entryDy=0;" edge="1" parent="1" source="650QwpIArmR6P_icmCOE-24" target="650QwpIArmR6P_icmCOE-25">
          <mxGeometry relative="1" as="geometry" />
        </mxCell>
        <mxCell id="650QwpIArmR6P_icmCOE-24" value="storedetR" style="rounded=1;whiteSpace=wrap;html=1;" vertex="1" parent="1">
          <mxGeometry x="510" y="120" width="120" height="60" as="geometry" />
        </mxCell>
        <mxCell id="650QwpIArmR6P_icmCOE-30" style="edgeStyle=orthogonalEdgeStyle;rounded=0;orthogonalLoop=1;jettySize=auto;html=1;exitX=0.5;exitY=1;exitDx=0;exitDy=0;entryX=0.5;entryY=0;entryDx=0;entryDy=0;" edge="1" parent="1" source="650QwpIArmR6P_icmCOE-25" target="650QwpIArmR6P_icmCOE-26">
          <mxGeometry relative="1" as="geometry" />
        </mxCell>
        <mxCell id="650QwpIArmR6P_icmCOE-25" value="storedetI" style="rounded=1;whiteSpace=wrap;html=1;" vertex="1" parent="1">
          <mxGeometry x="510" y="190" width="120" height="60" as="geometry" />
        </mxCell>
        <mxCell id="650QwpIArmR6P_icmCOE-26" value="done" style="rounded=1;whiteSpace=wrap;html=1;" vertex="1" parent="1">
          <mxGeometry x="510" y="260" width="120" height="60" as="geometry" />
        </mxCell>
        <mxCell id="650QwpIArmR6P_icmCOE-31" value="Last matrix" style="text;html=1;align=center;verticalAlign=middle;whiteSpace=wrap;rounded=0;" vertex="1" parent="1">
          <mxGeometry x="340" y="340" width="110" height="30" as="geometry" />
        </mxCell>
      </root>
    </mxGraphModel>
  </diagram>
</mxfile>
